<svg width="1060" height="586" viewBox="0 0 1060 586" fill="none" xmlns="http://www.w3.org/2000/svg">
<mask id="mask0" mask-type="alpha" maskUnits="userSpaceOnUse" x="0" y="15" width="1060" height="556">
<path fill-rule="evenodd" clip-rule="evenodd" d="M474.091 15.0912L327.723 532.245L808.342 406.512L474.091 15.0912ZM479.698 42.2065L346.435 513.059L784.024 398.583L479.698 42.2065Z" fill="white"/>
<path fill-rule="evenodd" clip-rule="evenodd" d="M384.195 570.932L810.687 334.232L415.092 50.8953L384.195 570.932ZM398.335 547.538L785.272 332.79L426.366 75.7316L398.335 547.538Z" fill="white"/>
<path d="M76.5032 314.891C77.7279 321.062 78.3526 326.325 78.3773 330.681C78.3773 330.681 78.3169 334.133 78.1961 341.038C78.1645 343.433 78.3891 346.497 78.8698 350.232C79.4775 353.951 79.4152 356.701 78.6827 358.482C77.9371 360.123 76.5037 361.29 74.3825 361.982C72.3883 362.658 70.7296 362.798 69.4064 362.405C68.1971 361.856 67.0513 361.298 65.9691 360.733C63.2833 359.529 61.1667 359.587 59.6193 360.909C58.199 362.215 57.2759 364.02 56.85 366.323C56.4241 368.627 56.2851 371.246 56.433 374.18C56.4577 378.536 56.9881 384.163 58.0241 391.061C58.3869 393.545 58.5768 395.56 58.5938 397.105C58.7247 398.494 58.8426 399.744 58.9473 400.856C59.1962 403.496 59.8197 406.017 60.818 408.421C61.8162 410.825 62.3743 412.652 62.4921 413.902C62.61 415.153 62.5176 416.219 62.2149 417.101C62.0262 417.828 61.6403 418.51 61.0572 419.147C60.4611 419.645 59.935 420.204 59.479 420.824C59.01 421.306 58.4839 421.865 57.9008 422.501C57.4318 422.983 56.9057 423.542 56.3226 424.179C57.5998 430.906 58.2376 436.308 58.2361 440.386C58.2215 444.324 58.2816 447.691 58.4165 450.486C58.5513 453.281 58.1188 455.516 57.1191 457.19C55.7773 459.329 52.8582 461.107 48.3615 462.523C45.7057 463.002 43.5918 461.724 42.0197 458.69C40.4607 455.796 39.5352 452.117 39.2433 447.655C39.0784 443.177 38.694 439.781 38.0901 437.467C37.4731 435.015 36.7683 432.996 35.9757 431.41C35.3102 429.807 34.6644 428.413 34.0381 427.227C33.3988 425.903 32.7772 424.084 32.1733 421.77C31.5694 419.457 31.5813 416.854 32.2091 413.962C30.2203 411.966 28.7903 409.758 27.9191 407.338C27.048 404.918 26.8038 401.645 27.1865 397.518C27.6833 393.237 27.9016 389.413 27.8415 386.046C27.9084 382.663 27.7474 379.59 27.3584 376.828C26.5018 370.469 24.8204 366.957 22.314 366.292C20.4824 365.963 18.5583 366.7 16.5419 368.503C14.6525 370.291 13.1555 371.465 12.051 372.028C10.9465 372.59 9.77652 372.458 8.54105 371.631C7.43266 370.788 6.81299 369.672 6.68204 368.282C6.67817 366.877 6.79484 365.386 7.03206 363.809C7.25618 362.093 7.4233 360.455 7.53343 358.894C7.77064 357.317 7.56959 355.867 6.93028 354.542C6.29096 353.217 5.5704 352.395 4.76857 352.075C3.96675 351.756 3.20228 351.15 2.47517 350.258C0.613477 348.246 -0.198015 344.412 0.0406933 338.758C0.266306 332.964 0.399502 328.237 0.440282 324.576C0.481061 320.915 0.486422 318.243 0.456363 316.56C0.540297 314.721 0.834509 313.067 1.339 311.596C1.84349 310.126 2.6788 308.754 3.84492 307.481C6.78643 304.576 10.8317 303.147 15.9808 303.194C39.6926 303.69 53.0847 303.18 56.1572 301.664C57.3888 301.085 58.4933 300.522 59.4707 299.976C67.8732 294.969 73.5507 299.941 76.5032 314.891Z" fill="white"/>
<path d="M143.821 419.153L142.519 403.29L142.028 398.08C141.635 393.912 141.005 391.321 140.138 390.307C138.811 388.507 136.946 387.831 134.545 388.277C132.13 388.584 130.423 389.575 129.423 391.249C128.55 392.907 128.092 394.863 128.047 397.119C128.129 399.358 128.231 401.806 128.353 404.461C128.602 407.101 128.87 409.949 129.159 413.006C129.481 419.152 129.926 423.875 130.494 427.178C131.19 430.464 131.393 432.617 131.103 433.638C130.928 434.504 130.377 435.488 129.452 436.59C128.514 437.553 127.799 438.839 127.308 440.449C126.804 441.919 126.369 443.45 126.005 445.043C124.82 448.85 123.408 450.928 121.769 451.277C116.865 452.464 112.333 450.089 108.172 444.151C107.265 442.719 106.111 441.39 104.709 440.163C101.739 437.307 100.746 432.231 101.731 424.935C102.052 421.519 102.049 418.075 101.721 414.602C101.381 410.989 101.011 408.435 100.613 406.939C100.215 405.443 100.058 403.776 100.142 401.938C100.212 399.96 99.8647 398.317 99.0983 397.009C98.3188 395.561 97.8813 393.648 97.7858 391.27C97.8173 388.876 97.5003 386.878 96.8348 385.275C96.2833 383.518 96.0692 381.928 96.1924 380.506C96.3156 379.084 96.0202 377.997 95.3062 377.245C94.7193 376.476 94.4173 375.319 94.4003 373.774C94.4974 372.075 94.5243 370.314 94.4812 368.492C94.391 363.441 93.459 359.693 91.6851 357.248C89.9112 354.802 88.2886 351.915 86.8174 348.588C85.4733 345.244 85.2711 341.051 86.2107 336.011C87.6772 328.372 87.5465 320.163 85.8188 311.385C85.3551 309.194 85.5576 306.567 86.4264 303.504C87.6464 298.708 92.8054 295.45 101.903 293.729C104.813 293.218 107.379 292.47 109.602 291.484C111.951 290.482 114.302 290.182 116.655 290.586C119.122 290.834 120.671 292.254 121.301 294.845C121.931 297.436 122.419 299.202 122.765 300.142C123.238 301.066 123.583 302.006 123.802 302.963C124.227 304.736 124.247 307.686 123.865 311.813C123.469 315.8 123.338 319.191 123.473 321.986C123.595 324.642 123.774 327.22 124.009 329.721C124.84 335.802 124.998 340.211 124.484 342.948C124.085 345.53 124.077 347.499 124.462 348.856C124.835 350.074 125.441 351.051 126.282 351.788C129.06 353.965 132.528 353.242 136.688 349.619C137.285 349.121 137.791 348.354 138.208 347.317C137.206 343.507 136.373 338.763 135.709 333.082C134.783 324.623 133.906 318.056 133.08 313.381C132.24 308.567 131.924 304.53 132.131 301.269C132.338 298.009 133.391 294.852 135.29 291.798C137.188 288.744 139.047 287.313 140.866 287.503C142.798 287.538 144.402 288.177 145.676 289.421C147.065 290.51 148.261 290.92 149.265 290.651C150.269 290.383 151.601 289.51 153.263 288.033C157.677 284.378 162.238 285.695 166.947 291.985C165.807 293.536 165.668 296.155 166.53 299.842C167.506 303.373 167.881 305.997 167.657 307.713C167.42 309.29 167.375 311.545 167.523 314.479C167.658 317.274 167.787 319.999 167.908 322.655C168.157 325.295 168.167 328.809 167.937 333.197C167.611 339.284 168.195 346.17 169.691 353.853C171.187 361.536 171.976 368.536 172.057 374.853C172.138 381.17 172.502 386.396 173.149 390.532C173.796 394.668 173.93 397.463 173.553 398.917C173.303 400.355 172.989 401.801 172.611 403.255C171.085 407.527 170.391 411.763 170.53 415.963C170.603 419.469 170.74 422.967 170.94 426.456C171.127 429.807 171.091 432.835 170.831 435.539C170.251 441.659 167.927 444.978 163.86 445.496C159.285 446.078 156.319 442.589 154.964 435.029C151.949 434.429 149.377 433.069 147.248 430.95C145.246 428.814 144.104 424.882 143.821 419.153Z" fill="white"/>
<path d="M191.787 399.97L190.594 389.365C190.411 387.42 190.304 385.606 190.274 383.922C190.231 382.1 189.895 379.893 189.265 377.302C188.197 372.798 187.565 369.504 187.368 367.42C187.286 365.181 187.122 363.444 186.877 362.21C186.746 360.821 186.501 359.586 186.143 358.507C185.604 356.888 184.402 354.37 182.537 350.952C180.798 347.518 179.732 343.716 179.34 339.548C178.947 335.38 179.458 331.941 180.875 329.229C182.164 326.534 182.494 323.891 181.864 321.3C181.234 318.709 180.654 315.97 180.125 313.085C179.71 310.045 179.422 306.988 179.261 303.915C179.086 300.704 179.434 297.566 180.303 294.503C182.431 287.061 187.702 282.945 196.116 282.155C201.34 281.63 205.904 281.611 209.808 282.099C213.712 282.586 216.548 282.646 218.314 282.281C220.08 281.915 222.747 280.873 226.315 279.153C231.443 276.25 235.713 275.847 239.126 277.943C240.081 278.525 240.96 278.975 241.762 279.295C242.677 279.46 243.486 279.849 244.187 280.463C246.596 282.827 247.775 288.512 247.724 297.518C247.718 300.19 247.713 302.862 247.707 305.534C247.661 311.867 248.1 316.521 249.024 319.497C249.947 322.473 250.52 325.142 250.743 327.503C251.079 329.71 251.206 331.733 251.122 333.571C250.739 337.698 249.467 339.898 247.307 340.174C245.388 340.277 243.931 339.83 242.936 338.832C242.056 337.679 241.296 336.44 240.657 335.115C240.004 333.651 239.308 332.404 238.568 331.374C237.942 330.188 236.675 329.717 234.769 329.959C229.177 330.671 225.369 330.524 223.345 329.516C221.434 328.353 219.774 327.791 218.363 327.83C216.939 327.73 215.617 328.039 214.399 328.757C211.848 330.347 210.475 332.842 210.281 336.241C210.214 339.624 210.235 342.574 210.344 345.091C210.452 347.608 210.668 349.901 210.992 351.968C211.704 356.799 212.792 359.472 214.256 359.989C215.833 360.351 217.111 360.258 218.088 359.712C219.053 359.027 220.01 358.272 220.962 357.448C223.802 354.837 226.818 353.398 230.008 353.132C233.312 352.712 235.858 353.794 237.645 356.378C239.559 358.947 240.513 361.567 240.508 364.239C240.489 366.772 240.471 369.305 240.453 371.839C240.561 374.356 240.53 376.75 240.358 379.021C239.391 387.862 235.862 389.999 229.773 385.431C222.476 385.798 218.056 387.345 216.513 390.072C216.197 390.815 215.953 392.323 215.781 394.594C215.61 396.866 215.769 399.236 216.259 401.704C217.51 408.153 220.696 411.263 225.819 411.032C229.15 410.889 232.091 410.023 234.642 408.432C237.32 406.826 239.032 405.202 239.777 403.56C240.382 401.796 241.251 400.772 242.381 400.487C243.499 400.064 244.496 399.726 245.372 399.474C246.236 399.082 247.112 398.83 248.002 398.717C248.892 398.604 249.794 398.629 250.71 398.794C253.076 399.336 254.594 401.111 255.264 404.119C256.06 407.111 256.068 409.922 255.287 412.553C254.506 415.183 254.023 417.564 253.838 419.697C253.767 421.674 253.65 423.166 253.488 424.171C253.325 425.176 252.681 426.523 251.554 428.213C250.541 429.748 249.699 431.051 249.028 432.12C248.485 433.174 247.385 433.103 245.729 431.908C242.71 429.902 239.473 431.72 236.018 437.362C235.145 439.02 234.17 440.269 233.091 441.109C232.013 441.95 230.26 442.454 227.832 442.623C225.404 442.791 223.433 442.339 221.917 441.267C220.401 440.194 219.012 439.106 217.751 438.001C215.595 435.604 212.199 435.052 207.563 436.346C204.806 437.118 202.394 436.09 200.327 433.26C199.906 432.892 199.516 432.168 199.157 431.089C198.925 429.993 198.617 428.767 198.232 427.41C197.002 423.911 195.96 421.724 195.105 420.849C194.365 419.818 193.853 418.477 193.569 416.826C193.412 415.159 193.121 413.438 192.696 411.665C192.259 409.752 191.937 408.387 191.732 407.569C191.513 406.613 191.472 405.493 191.608 404.211C191.871 402.912 191.931 401.498 191.787 399.97Z" fill="white"/>
<path d="M407.401 264.109C408.737 264.642 409.635 265.301 410.095 266.086C410.669 266.716 411.313 267.407 412.027 268.16C412.728 268.774 413.111 269.428 413.176 270.123C413.242 270.817 413.25 271.589 413.202 272.439C413.153 273.289 413.041 274.147 412.866 275.013C412.804 275.724 412.946 276.549 413.292 277.489C413.765 278.414 413.635 279.766 412.903 281.546C412.157 283.188 411.306 285.757 410.349 289.253C409.393 292.749 408.793 296.622 408.551 300.871C408.435 305.104 408.383 309.329 408.395 313.545C408.393 317.623 408.385 321.631 408.371 325.57C408.47 329.354 408.155 332.838 407.427 336.025C406.825 339.194 406.384 342.695 406.102 346.528C405.934 350.205 405.779 354.021 405.637 357.976C405.296 368.002 404.818 374.531 404.204 377.562C403.589 380.592 403.328 382.594 403.419 383.567C403.511 384.539 403.495 385.736 403.372 387.158C403.077 390.851 401.936 394.441 399.95 397.928C398.078 401.26 396.972 403.861 396.634 405.732C396.296 407.603 395.952 409.405 395.6 411.137C395.363 412.713 394.973 414.029 394.429 415.082C393.898 416.274 392.991 416.882 391.707 416.905C390.55 416.912 389.704 416.808 389.17 416.595C388.762 416.366 388.355 416.137 387.947 415.907C386.532 414.541 384.815 414.057 382.794 414.454C380.901 414.836 379.503 415.014 378.6 414.988C376.554 415.108 375.134 414.375 374.342 412.789C373.676 411.186 372.919 408.611 372.07 405.064C371.348 401.5 370.557 397.875 369.695 394.188C367.292 385.074 365.074 380.646 363.041 380.905C361.897 381.05 361.353 382.104 361.409 384.065C361.466 386.027 361.489 387.64 361.48 388.907C361.598 390.158 361.608 391.633 361.511 393.332C361.414 395.032 361.142 397.597 360.693 401.029C360.245 404.46 359.657 407.769 358.928 410.955C356.953 418.659 354.123 422.745 350.438 423.214C347.514 423.587 345.306 422.673 343.813 420.473C343.213 419.565 342.613 418.657 342.013 417.749C341.399 416.702 340.361 415.921 338.898 415.404C337.548 414.732 336.389 414.036 335.421 413.316C334.453 412.596 333.649 411.573 333.01 410.248C332.077 408.539 331.141 405.425 330.2 400.905C329.373 396.229 328.455 392.62 327.443 390.078C326.432 387.535 325.363 385.07 324.238 382.682C321.589 376.411 320.121 371.747 319.833 368.691C319.672 365.618 319.296 362.994 318.705 360.82C318.241 358.629 317.657 356.524 316.952 354.505C316.247 352.486 315.409 350.413 314.437 348.287C313.592 346.145 312.734 343.864 311.863 341.444C311.105 338.869 310.241 336.519 309.269 334.393C308.411 332.112 307.566 329.97 306.734 327.967C305.005 323.266 304.542 319.036 305.345 315.278C306.275 311.504 306.119 307.798 304.876 304.16C303.633 300.522 302.142 296.986 300.403 293.551C298.779 289.962 297.378 286.696 296.2 283.752C294.882 280.686 294.703 278.108 295.664 276.017C296.611 273.787 298.082 272.335 300.076 271.659C302.197 270.967 304.358 270.692 306.558 270.833C308.744 270.836 310.881 270.986 312.966 271.283C316.222 271.712 318.389 271.506 319.467 270.666C320.66 269.671 321.624 268.985 322.361 268.61C323.084 268.096 323.954 267.775 324.97 267.645C325.987 267.516 327.304 267.84 328.921 268.619C330.664 269.381 331.849 270.355 332.476 271.54C333.229 272.71 333.748 274.12 334.032 275.771C334.443 277.406 334.747 279.266 334.944 281.35C335.127 283.295 335.847 286.156 337.103 289.933C340.986 301.108 342.4 311.333 341.345 320.607C340.699 326.032 340.921 330.433 342.01 333.809C343.087 337.046 344.312 338.437 345.683 337.981C346.928 337.542 347.656 336.394 347.867 334.54C348.065 332.546 348.033 330.16 347.771 327.381C347.623 324.447 347.399 321.382 347.097 318.187C346.783 314.852 346.749 311.763 346.996 308.92C347.242 306.077 347.42 303.875 347.53 302.314C347.64 300.753 347.783 299.54 347.959 298.674C348.437 296.926 349.165 295.779 350.143 295.232C348.207 280.153 349.361 269.882 353.605 264.421C354.416 263.474 355.393 262.928 356.537 262.782C357.808 262.62 359.1 263.37 360.414 265.03C361.729 266.691 362.665 269.805 363.224 274.374C364.173 281.705 365.483 288.78 367.154 295.597C368.826 302.414 370.003 307.396 370.685 310.543C371.495 313.674 372.278 316.527 373.035 319.102C375.709 329.729 377.709 331.162 379.035 323.4C380.085 316.799 380.374 310.997 379.902 305.995C379.431 300.994 378.845 298.186 378.144 297.572C375.086 295.149 374.719 291.259 377.044 285.901C377.978 283.533 378.352 280.673 378.164 277.323C378.044 270.589 378.122 266.642 378.399 265.482C378.789 264.167 379.511 262.95 380.563 261.832C381.729 260.559 382.985 259.555 384.33 258.821C387.745 256.84 390.733 257.162 393.296 259.789C394.737 261.433 396.862 262.147 399.671 261.93C402.48 261.713 404.102 261.858 404.535 262.365C405.096 262.856 406.051 263.437 407.401 264.109Z" fill="white"/>
<path d="M433.563 263.309C434.83 261.741 435.899 260.129 436.772 258.471C437.632 256.674 438.822 254.976 440.343 253.376C444.412 248.781 448.748 247.033 453.354 248.134C459.028 249.661 464.179 250.411 468.807 250.385C473.434 250.358 476.856 251.187 479.073 252.874C481.417 254.544 483.456 256.393 485.191 258.422C489.374 263.232 492.142 268.715 493.493 274.87C493.843 277.215 494.381 278.834 495.109 279.726C497.049 282.572 497.944 286.606 497.793 291.827C497.769 297.033 497.919 300.669 498.242 302.737C498.68 304.65 499.135 306.068 499.608 306.992C500.208 307.9 500.744 308.816 501.217 309.74C502.483 312.251 503.24 314.826 503.489 317.465C503.803 320.8 503.101 324.264 501.382 327.857C500.61 329.221 500.521 331.693 501.116 335.273C501.711 338.853 502.242 342.441 502.709 346.037C503.688 355.052 503.773 360.735 502.966 363.088C502.146 365.301 501.501 366.649 501.032 367.13C500.69 367.596 500.341 367.991 499.986 368.318C498.172 369.533 496.731 372.669 495.664 377.726C494.712 382.628 493.172 386.761 491.045 390.125C488.906 393.35 486.593 396.105 484.108 398.39C481.736 400.52 479.834 402.168 478.4 403.335C477.107 404.625 476.188 405.796 475.645 406.85C475.101 407.903 474.557 408.956 474.013 410.01C472.571 412.443 470.578 413.822 468.037 414.145C463.716 414.696 460.434 413.989 458.191 412.025C457.183 410.888 456.06 409.203 454.82 406.97C452.561 403.462 449.731 400.729 446.331 398.771C442.523 396.585 439.99 392.9 438.73 387.718C438.178 385.96 437.881 384.17 437.838 382.348C437.921 380.509 437.642 378.225 436.999 375.495C436.483 372.748 435.739 370.312 434.766 368.186C433.794 366.06 433.153 364.033 432.843 362.104C431.657 356.35 429.583 353.45 426.621 353.406C424.434 353.403 422.829 350.022 421.807 343.262C421.352 339.805 421.171 336.524 421.265 333.419C421.345 330.175 421.598 327.401 422.023 325.097C422.66 320.938 422.539 316.243 421.661 311.012C420.769 305.642 420.317 300.849 420.305 296.633C420.207 288.771 421.136 282.255 423.093 277.085C424.04 274.855 425.496 272.561 427.46 270.202C429.551 267.827 431.585 265.529 433.563 263.309ZM451.19 321.383C451.755 323.279 452.541 324.796 453.549 325.933C454.67 326.916 455.539 328.633 456.156 331.085C456.9 333.521 457.353 336.276 457.514 339.348C457.662 342.282 457.867 345.138 458.129 347.917C458.378 350.557 458.734 352.972 459.198 355.163C459.648 357.215 460.213 359.111 460.891 360.853C462.695 364.982 464.868 366.884 467.41 366.561C471.35 366.059 473.296 357.375 473.25 340.508C473.326 335.859 473.03 329.991 472.362 322.905C471.681 315.68 470.082 309.627 467.564 304.746C465.033 299.725 462.306 297.401 459.383 297.773C456.587 298.129 454.366 301.856 452.72 308.956C451.263 315.328 450.753 319.47 451.19 321.383Z" fill="white"/>
<path d="M557.477 241.414L563.538 240.22C567.859 239.67 570.981 240.046 572.904 241.347C574.955 242.633 576.484 243.844 577.491 244.982C578.626 246.102 579.64 247.309 580.533 248.601C581.414 249.755 582.555 250.945 583.956 252.173C585.485 253.384 586.342 254.962 586.525 256.907C586.695 258.714 587.277 260.116 588.272 261.114C589.393 262.096 590.072 263.837 590.308 266.338C590.543 268.839 590.709 271.279 590.805 273.657C591.014 275.88 591 277.78 590.763 279.356C590.513 280.794 590.46 282.277 590.604 283.806C590.735 285.195 591.113 286.483 591.739 287.668C592.48 288.699 592.812 291.539 592.735 296.189C592.773 300.683 592.5 305.288 591.915 310.002C591.458 314.7 590.624 318.814 589.413 322.342C586.952 328.983 582.46 334.546 575.938 339.032C576.731 340.619 577.607 342.405 578.565 344.392C579.638 346.224 580.654 348.133 581.613 350.12C583.75 355.051 584.93 358.697 585.152 361.059C585.362 363.282 585.583 364.941 585.814 366.036C586.16 366.976 586.487 367.708 586.793 368.231C587.1 368.755 587.457 369.131 587.864 369.36C588.399 369.574 589.15 370.04 590.118 370.761C591.073 371.342 591.89 372.504 592.569 374.245C593.247 375.986 593.678 377.83 593.862 379.775C594.281 384.221 594.034 387.064 593.122 388.305C592.324 389.391 591.367 390.146 590.249 390.569C589.272 391.115 588.218 391.531 587.087 391.815C584.203 392.604 582.321 392.422 581.441 391.269C580.319 390.287 579.642 389.248 579.411 388.153C579.293 386.903 579.004 385.885 578.544 385.1C578.071 384.176 577.447 383.693 576.671 383.651C575.882 383.47 575.225 382.64 574.7 381.16C574.302 379.664 573.765 378.748 573.091 378.412C572.53 377.921 571.373 377.928 569.62 378.433C566.508 379.532 563.961 377.747 561.977 373.079C561.491 372.016 560.972 370.605 560.421 368.848C559.869 367.09 559.261 365.41 558.595 363.808C557.199 359.908 555.789 357.908 554.364 357.808C553.054 357.553 552.114 357.814 551.544 358.589C550.974 359.365 550.557 360.402 550.294 361.701C550.145 362.845 550.142 364.181 550.286 365.709C550.417 367.099 550.688 368.611 551.099 370.246C551.638 371.864 551.832 373.246 551.683 374.389C551.534 375.533 551.237 376.485 550.794 377.244C550.479 377.988 550.093 378.669 549.637 379.29C548.686 380.114 548.181 381.584 548.123 383.701C548.193 385.801 548.109 387.639 547.872 389.216C547.463 393.065 546.669 395.556 545.489 396.69C544.31 397.825 543.092 398.542 541.834 398.843C540.589 399.283 539.318 399.445 538.021 399.329C534.778 399.039 532.691 398.039 531.758 396.33C530.838 394.76 530.276 393.566 530.07 392.749C529.851 391.792 529.703 390.897 529.624 390.064C529.672 389.214 529.714 388.294 529.75 387.306C529.785 386.317 529.681 385.205 529.436 383.971C529.305 382.582 528.88 380.808 528.162 378.65C527.444 376.492 526.878 373.892 526.463 370.852L525.761 365.458C525.709 364.902 526.069 363.942 526.84 362.578C527.599 361.076 527.709 359.515 527.171 357.896C526.746 356.123 525.943 355.1 524.759 354.829C523.563 354.419 522.932 353.866 522.867 353.172C522.802 352.477 522.765 350.724 522.757 347.913C522.749 345.102 522.295 341.645 521.394 337.541C520.62 333.422 520.018 329.772 519.59 326.593C518.427 319.711 516.916 315.966 515.059 315.359C513.315 314.597 512.257 313.607 511.885 312.389C511.5 311.032 511.356 309.504 511.453 307.804C511.55 306.105 511.607 303.988 511.626 301.455C511.771 298.906 511.917 296.356 512.062 293.807C512.195 291.118 512.283 288.647 512.328 286.391C512.5 284.12 512.61 282.559 512.659 281.709C512.707 280.859 512.635 280.095 512.442 279.417C512.364 278.583 512.292 277.819 512.226 277.124C511.763 274.934 511.579 272.989 511.676 271.289C511.884 268.029 511.801 265.79 511.429 264.571C511.044 263.214 511.045 261.176 511.431 258.455C511.932 255.579 512.384 253.553 512.788 252.377C513.191 251.201 514.066 250.246 515.411 249.512C516.757 248.778 518.019 247.844 519.199 246.71C520.492 245.42 521.664 244.216 522.717 243.098C523.756 241.841 524.681 240.739 525.492 239.792C526.29 238.706 527.304 237.874 528.536 237.295C532.143 235.992 534.805 235.583 536.523 236.067C538.355 236.397 539.685 236.86 540.513 237.458C541.341 238.055 542.296 238.637 543.378 239.202C544.587 239.751 545.783 240.161 546.966 240.432C548.263 240.548 549.42 240.541 550.437 240.412C553.132 240.35 554.76 240.565 555.321 241.056C555.995 241.391 556.714 241.511 557.477 241.414ZM547.135 301.573L550.066 320.393C550.184 321.643 550.238 322.901 550.229 324.168C550.207 325.296 550.178 326.354 550.142 327.343C550.212 329.443 551.028 330.604 552.593 330.827C553.89 330.943 554.874 330.466 555.545 329.397C556.203 328.188 556.764 326.64 557.229 324.753C558.427 321.085 558.726 318.798 558.126 317.89C556.978 316.63 556.549 315.489 556.839 314.468C557.242 313.292 557.999 311.087 559.109 307.852C560.346 304.601 561.177 301.824 561.603 299.52C562.156 297.2 562.124 294.814 561.507 292.362C560.877 289.77 560.516 287.988 560.425 287.016L560.208 284.723C560.104 283.612 559.504 282.704 558.408 282C557.427 281.141 556.746 280.735 556.365 280.784C555.97 280.693 555.646 280.664 555.392 280.697C554.274 281.12 553.187 281.188 552.131 280.901C551.062 280.475 550.089 280.388 549.213 280.64C548.323 280.753 547.365 281.508 546.339 282.904C545.314 284.3 544.802 285.701 544.806 287.106C544.797 288.373 544.935 289.832 545.219 291.483C546.326 296.404 546.964 299.767 547.135 301.573Z" fill="white"/>
<path d="M669.381 255.848C669.841 256.633 670.053 257.52 670.018 258.508C669.983 259.497 669.25 261.278 667.821 263.85C666.391 266.422 665.617 269.122 665.497 271.949C665.492 274.621 665.638 276.852 665.935 278.642C666.219 280.294 666.357 281.752 666.348 283.019C666.509 286.092 665.18 288.37 662.362 289.854C659.925 291.289 657.948 291.47 656.432 290.398C654.917 289.325 653.622 287.873 652.549 286.041C651.463 284.071 650.601 282.423 649.961 281.098C649.436 279.619 648.658 278.874 647.629 278.864C645.81 278.674 644.432 279.061 643.494 280.024C642.682 280.971 642.049 281.754 641.593 282.375C640.681 283.616 639.673 284.517 638.568 285.08C637.591 285.626 636.804 286.148 636.208 286.646C635.029 287.78 634.671 289.443 635.135 291.633C636.049 295.876 641.049 301.847 650.135 309.548C651.817 311.021 653.767 312.601 655.983 314.287C658.327 315.957 660.634 317.913 662.903 320.155C668.041 325.547 671.218 331.962 672.434 339.399C673.662 346.976 673.274 353.775 671.269 359.795C669.668 364.638 667.535 367.933 664.87 369.678C662.827 371.204 661.523 373.057 660.957 375.239C660.378 377.281 659.943 378.812 659.654 379.833C659.351 380.716 658.59 381.516 657.372 382.233C656.293 383.073 654.985 383.521 653.447 383.576C651.909 383.632 650.415 383.47 648.964 383.093C647.654 382.838 646.394 382.436 645.185 381.887C644.116 381.46 643.194 381.226 642.418 381.185C641.769 381.127 641.16 381.485 640.59 382.261C640.007 382.898 639.431 383.604 638.861 384.379C637.151 386.706 635.507 387.689 633.93 387.327C632.365 387.105 630.514 386.567 628.376 385.714C626.238 384.862 624.137 383.723 622.073 382.299C614.66 377.337 611.746 371.662 613.33 365.274C614.349 361.067 615.605 358.025 617.1 356.147C618.722 354.253 620.042 353.242 621.058 353.112C622.711 352.902 623.856 353.459 624.496 354.783C625.249 355.953 625.862 357 626.335 357.924C626.795 358.709 627.305 359.347 627.866 359.838C628.427 360.329 629.242 360.788 630.311 361.214C631.507 361.624 632.747 361.818 634.031 361.795C637.234 361.668 639.518 359.971 640.882 356.704C642.246 353.437 642.567 350.022 641.846 346.458C640.341 340.041 638.808 337.424 637.247 338.607C635.941 339.758 634.232 340.046 632.12 339.471C629.995 338.757 628.803 337.714 628.545 336.341C628.274 334.829 627.882 333.402 627.37 332.061C626.858 330.721 626.289 329.457 625.662 328.272C624.217 325.222 623.037 323.615 622.121 323.45C621.078 323.302 619.667 323.341 617.888 323.567C616.236 323.778 614.282 322.831 612.025 320.728C609.756 318.486 608.007 315.616 606.777 312.117C605.533 308.479 604.47 305.38 603.585 302.821C602.688 300.124 601.913 298.043 601.261 296.579C600.608 295.116 600.013 293.575 599.475 291.956C597.706 286.838 597.001 280.038 597.359 271.557C597.663 266.597 598.662 262.181 600.355 258.31C602.034 254.3 603.975 250.327 606.176 246.391C610.338 238.69 614.321 233.191 618.126 229.895C621.931 226.598 625.018 225.924 627.388 227.872C629.465 229.435 631.57 229.94 633.705 229.387C635.953 228.679 637.693 228.036 638.925 227.457L642.277 226.187C644.386 225.356 646.553 225.15 648.779 225.57C651.132 225.973 653.388 228.076 655.547 231.879C656.633 233.849 657.693 235.542 658.726 236.957C659.887 238.356 660.978 239.694 661.998 240.97C664.219 244.061 665.561 246.703 666.025 248.893C666.603 250.929 667.191 252.4 667.792 253.308C668.519 254.2 669.049 255.046 669.381 255.848Z" fill="white"/>
<path d="M678.997 222.776C681.946 222.682 684.501 222.497 686.662 222.222C688.936 221.792 692.304 221.363 696.765 220.936C704.176 220.414 709.334 219.195 712.24 217.278C718.14 213.012 723.121 211.956 727.182 214.11C729.066 214.995 730.847 215.471 732.526 215.539C734.204 215.606 736.477 214.473 739.344 212.14C742.504 210.191 745.203 209.495 747.443 210.054C749.682 210.612 751.369 211.452 752.503 212.573C753.638 213.694 754.483 215.836 755.038 218.999C755.707 222.007 756.059 225.056 756.093 228.145C756.254 231.217 756.268 234.098 756.136 236.786C756.041 243.969 756.162 248.664 756.499 250.871C756.962 253.061 757.433 255.322 757.91 257.651C758.513 259.964 758.857 262.241 758.939 264.48C759.196 269.931 757.45 273.246 753.703 274.426C750.946 275.199 748.847 274.764 747.406 273.119C745.952 271.336 744.675 269.389 743.576 267.28C742.591 265.015 741.569 263.036 740.509 261.343C739.576 259.634 738.373 259.155 736.901 259.904C735.415 260.515 734.632 262.443 734.552 265.687C734.459 268.792 734.679 272.49 735.212 276.781C735.732 280.933 736.398 285.277 737.212 289.813C738.012 294.211 738.626 297.999 739.055 301.179C739.47 304.219 739.892 307.329 740.32 310.508C740.875 313.671 741.284 316.642 741.546 319.421C742.109 325.395 741.733 329.591 740.417 332.008C739.759 333.217 739.502 334.585 739.647 336.114C739.791 337.642 740.068 339.223 740.48 340.858C741.018 342.477 741.556 344.096 742.095 345.714C742.633 347.333 743.014 349.323 743.236 351.685C743.76 357.243 741.839 361.424 737.474 364.23C735.9 365.274 734.506 366.857 733.291 368.98C732.077 371.104 731.114 372.492 730.404 373.144C729.834 373.92 729.028 374.234 727.985 374.085C727.082 374.06 726.337 373.662 725.75 372.893C725.304 372.247 724.85 371.532 724.39 370.747C723.418 368.621 722.201 367.299 720.737 366.783C719.046 366.576 717.885 365.178 717.255 362.586C716.752 359.979 716.345 357.711 716.035 355.782C715.838 353.698 715.476 351.213 714.946 348.328C714.417 345.442 713.368 343.186 711.8 341.558C710.232 339.929 708.983 338.964 708.054 338.66C707.112 338.218 706.429 337.109 706.005 335.336C705.567 333.423 705.384 331.478 705.455 329.5C705.653 327.507 705.895 325.296 706.18 322.87C707.064 315.868 707.287 309.371 706.851 303.381C706.185 292.218 705.491 284.854 704.769 281.29C703.58 274.13 701.46 270.744 698.41 271.133C696.898 271.466 695.89 272.368 695.385 273.838C694.868 275.169 694.313 276.787 693.72 278.69C692.373 283.501 689.25 285.164 684.352 283.679C682.621 283.056 681.416 281.874 680.738 280.132C680.186 278.374 679.736 276.323 679.386 273.977C679.15 271.476 678.844 268.914 678.468 266.29C678.206 263.512 677.519 260.998 676.407 258.749C675.409 256.346 674.424 254.081 673.452 251.955C672.48 249.829 671.952 247.646 671.87 245.407C671.787 243.168 672.029 240.958 672.595 238.777C673.289 236.579 673.346 234.463 672.769 232.428C672.318 230.376 672.509 228.313 673.343 226.238C674.29 224.009 676.175 222.855 678.997 222.776Z" fill="white"/>
<path d="M885.623 216.713C887.152 217.924 888.238 219.895 888.882 222.625C889.512 225.216 890.731 229.279 892.539 234.814C894.346 240.348 894.668 246.494 893.505 253.25C892.841 257.131 892.494 260.269 892.463 262.663C892.119 267.206 891.59 271.14 890.874 274.465C890.273 277.635 889.743 281.569 889.286 286.267C888.815 290.826 888.038 294.862 886.954 298.375C885.857 301.748 884.936 304.256 884.191 305.897C883.572 307.523 883.004 309.001 882.487 310.333C881.263 313.722 880.539 316.275 880.315 317.991C880.218 319.69 879.95 321.623 879.511 323.788C879.186 325.797 878.67 327.832 877.964 329.89C875.968 334.643 873.202 336.683 869.666 336.008C865.698 340.31 863.184 343.653 862.123 346.038C861.048 348.284 860.048 349.958 859.123 351.06C858.198 352.162 857.247 352.986 856.27 353.532C855.419 354.062 854.563 354.523 853.699 354.914C852.836 355.305 851.992 355.905 851.168 356.713C850.344 357.52 849.125 358.238 847.512 358.865C846.04 359.615 844.457 359.887 842.766 359.681C838.621 359.365 836.12 356.028 835.263 349.669C831.828 348.7 829.606 347.647 828.599 346.51C826.33 344.268 825.012 341.202 824.645 337.312C824.265 333.283 824.155 330.063 824.313 327.653C824.586 325.087 824.808 322.668 824.98 320.397C825.613 314.833 825.404 310.571 824.354 307.611C823.29 304.513 822.761 301.628 822.766 298.955C822.885 296.128 822.667 293.133 822.112 289.97C821.671 286.652 821.396 283.734 821.287 281.217C821.305 278.684 821.273 276.297 821.191 274.058C821.222 271.664 821.147 269.494 820.963 267.549C820.78 265.604 820.228 263.846 819.309 262.276C818.376 260.567 817.57 258.842 816.892 257.101C816.34 255.343 815.865 253.716 815.467 252.22C814.732 248.517 813.841 245.889 812.795 244.335C811.875 242.765 811.374 240.86 811.292 238.621C811.196 236.243 810.789 233.975 810.071 231.817C809.467 229.503 809.107 227.721 808.989 226.471C808.985 225.065 808.727 223.692 808.215 222.351C807.816 220.856 807.858 219.936 808.34 219.594C809.064 219.08 809.599 217.254 809.946 214.117C810.294 210.979 810.879 209.006 811.704 208.198C812.515 207.251 813.402 206.435 814.367 205.75C815.318 204.926 816.416 204.294 817.661 203.854C820.544 203.065 823.266 203.281 825.824 204.502C828.51 205.707 830.418 206.167 831.549 205.882C832.807 205.581 834.039 205.003 835.244 204.146C839.141 201.822 842.995 200.417 846.808 199.932C850.62 199.447 853.316 199.385 854.893 199.746C856.457 199.969 857.711 200.301 858.653 200.744C859.581 201.047 860.453 201.428 861.268 201.887C862.197 202.191 863.424 202.245 864.949 202.051C866.602 201.841 867.848 202.104 868.689 202.84C869.53 203.577 870.321 204.46 871.061 205.491C871.928 206.505 872.859 207.512 873.854 208.51C874.848 209.508 876.064 210.126 877.501 210.365C879.053 210.449 880.038 210.675 880.459 211.043C880.994 211.256 881.414 211.625 881.721 212.148C882.014 212.532 882.321 213.056 882.64 213.718C883.087 214.364 884.081 215.362 885.623 216.713ZM848.425 253.929C847.298 255.619 847.025 258.185 847.607 261.626C848.175 264.928 848.98 268.692 850.022 272.918C851.05 277.005 851.632 280.446 851.766 283.241C851.901 286.036 851.902 288.778 851.77 291.466C851.765 294.138 851.696 296.818 851.563 299.507C851.558 302.179 851.68 304.835 851.929 307.475C852.164 309.975 852.652 311.741 853.392 312.772C854.133 313.802 854.884 314.269 855.647 314.172C856.396 313.936 857.106 313.283 857.777 312.213C858.435 311.005 858.779 309.203 858.811 306.809C858.956 304.26 859.56 301.793 860.621 299.408C861.797 296.868 862.654 294.368 863.194 291.909C863.734 289.45 864.015 287.657 864.038 286.529C864.187 285.386 864.286 284.389 864.334 283.539C864.37 282.55 864.342 281.57 864.25 280.597C864.272 279.469 864.497 277.754 864.922 275.45C865.348 273.146 865.229 271.193 864.563 269.59C864.012 267.832 863.504 265.858 863.04 263.668C862.577 261.477 861.942 259.519 861.136 257.794C860.444 255.913 859.049 254.755 856.95 254.32C856.034 254.155 855.169 253.843 854.354 253.385C853.666 252.91 852.985 252.505 852.31 252.169C850.847 251.652 849.552 252.239 848.425 253.929Z" fill="white"/>
<path d="M911.62 308.31L910.428 297.706C910.244 295.761 910.138 293.946 910.108 292.263C910.064 290.441 909.728 288.234 909.098 285.643C908.03 281.139 907.398 277.845 907.202 275.761C907.119 273.521 906.955 271.785 906.71 270.55C906.58 269.161 906.335 267.927 905.976 266.848C905.437 265.229 904.235 262.711 902.37 259.292C900.631 255.858 899.566 252.057 899.173 247.889C898.78 243.721 899.292 240.281 900.708 237.57C901.997 234.875 902.327 232.232 901.697 229.64C901.067 227.049 900.487 224.311 899.958 221.426C899.543 218.385 899.255 215.329 899.094 212.256C898.92 209.044 899.267 205.906 900.136 202.843C902.264 195.401 907.535 191.285 915.949 190.495C921.173 189.971 925.737 189.952 929.641 190.439C933.546 190.926 936.381 190.987 938.147 190.621C939.913 190.256 942.58 189.213 946.148 187.494C951.276 184.591 955.546 184.188 958.959 186.284C959.915 186.865 960.793 187.316 961.595 187.636C962.511 187.8 963.319 188.189 964.02 188.803C966.429 191.168 967.608 196.853 967.557 205.858C967.551 208.53 967.546 211.202 967.541 213.874C967.494 220.208 967.933 224.862 968.857 227.838C969.78 230.813 970.353 233.482 970.576 235.844C970.913 238.051 971.039 240.073 970.955 241.912C970.572 246.038 969.301 248.239 967.14 248.514C965.221 248.618 963.764 248.171 962.769 247.172C961.889 246.019 961.129 244.78 960.49 243.455C959.837 241.992 959.141 240.745 958.401 239.714C957.775 238.529 956.508 238.057 954.602 238.3C949.01 239.012 945.202 238.864 943.178 237.856C941.268 236.694 939.607 236.132 938.196 236.171C936.772 236.071 935.45 236.38 934.232 237.097C931.681 238.688 930.308 241.182 930.114 244.582C930.047 247.965 930.068 250.915 930.177 253.432C930.285 255.949 930.501 258.241 930.825 260.309C931.538 265.139 932.626 267.813 934.089 268.33C935.666 268.691 936.944 268.599 937.921 268.053C938.886 267.367 939.843 266.613 940.795 265.788C943.635 263.177 946.651 261.739 949.841 261.473C953.145 261.052 955.691 262.134 957.478 264.719C959.392 267.287 960.347 269.907 960.341 272.579C960.323 275.113 960.304 277.646 960.286 280.179C960.394 282.696 960.363 285.09 960.191 287.362C959.224 296.203 955.695 298.339 949.606 293.772C942.309 294.138 937.889 295.685 936.346 298.413C936.03 299.156 935.786 300.663 935.615 302.935C935.443 305.206 935.602 307.576 936.092 310.045C937.343 316.494 940.53 319.603 945.652 319.373C948.983 319.23 951.924 318.363 954.475 316.773C957.153 315.167 958.865 313.542 959.61 311.901C960.216 310.137 961.084 309.112 962.214 308.828C963.332 308.404 964.329 308.066 965.206 307.814C966.069 307.423 966.946 307.171 967.835 307.057C968.725 306.944 969.627 306.97 970.543 307.134C972.909 307.677 974.427 309.452 975.097 312.46C975.893 315.452 975.901 318.263 975.12 320.893C974.339 323.523 973.856 325.905 973.671 328.037C973.6 330.015 973.484 331.506 973.321 332.511C973.159 333.516 972.514 334.864 971.387 336.554C970.374 338.089 969.532 339.391 968.862 340.461C968.318 341.514 967.218 341.443 965.562 340.248C962.543 338.242 959.306 340.06 955.851 345.703C954.978 347.361 954.003 348.61 952.925 349.45C951.846 350.29 950.093 350.795 947.665 350.963C945.238 351.132 943.266 350.68 941.75 349.607C940.234 348.535 938.845 347.446 937.584 346.342C935.429 343.944 932.033 343.393 927.396 344.686C924.639 345.459 922.227 344.43 920.16 341.6C919.739 341.232 919.349 340.508 918.991 339.429C918.759 338.334 918.45 337.108 918.065 335.751C916.835 332.252 915.793 330.064 914.939 329.189C914.198 328.158 913.686 326.818 913.402 325.167C913.245 323.499 912.954 321.779 912.53 320.005C912.092 318.092 911.77 316.727 911.565 315.91C911.346 314.953 911.305 313.834 911.441 312.551C911.704 311.252 911.764 309.838 911.62 308.31Z" fill="white"/>
<path d="M1007.58 196.544C1010.29 199.432 1011.87 204.504 1012.29 211.761C1012.65 215.513 1013.31 218.451 1014.28 220.577L1016.7 225.753C1017.82 228.141 1019.04 232.906 1020.36 240.05C1020.75 242.813 1021.64 244.105 1023.04 243.927C1023.93 243.814 1024.27 241.943 1024.06 238.314C1023.63 231.057 1023.73 225.349 1024.37 221.191C1025.01 217.032 1025.38 213.47 1025.49 210.503C1025.71 207.382 1025.81 204.416 1025.8 201.605C1025.78 198.655 1025.72 195.991 1025.63 193.613C1025.65 191.079 1025.73 188.538 1025.88 185.989C1026.14 183.284 1026.87 180.87 1028.09 178.747C1029.43 176.608 1031.69 175.405 1034.88 175.14C1038.08 174.874 1040.26 174.807 1041.43 174.94C1042.58 174.933 1043.49 175.028 1044.15 175.225C1044.93 175.267 1045.52 175.402 1045.93 175.632C1046.45 175.706 1047.15 175.686 1048.04 175.573C1048.93 175.46 1049.88 175.269 1050.88 175.001C1052.01 174.716 1052.85 174.68 1053.38 174.893C1054.03 174.951 1054.7 175.218 1055.39 175.693C1056.07 176.168 1056.74 177.067 1057.38 178.392C1059.09 181.548 1059.91 185.451 1059.83 190.101C1059.88 194.734 1059.66 197.856 1059.17 199.465C1058.79 200.919 1058.33 202.103 1057.77 203.018C1057.34 203.916 1056.84 204.753 1056.27 205.529C1055.69 206.166 1055.21 207.211 1054.83 208.665C1054.45 210.119 1054.25 212.113 1054.24 214.646C1054.22 217.179 1054.22 219.921 1054.24 222.871C1054.33 233.404 1053.59 240.529 1052.01 244.245C1051.71 245.128 1051.28 246.026 1050.72 246.94C1048.2 251.62 1046.71 255.606 1046.25 258.898C1045.9 262.036 1045.7 264.593 1045.62 266.571C1044.77 277.928 1043.7 287.132 1042.44 294.183C1040.89 302.255 1040.06 307.14 1039.96 308.84C1039.75 314.772 1038.24 319.183 1035.42 322.073C1034.02 323.517 1032.78 326.135 1031.73 329.925C1030.8 333.699 1030.01 336.329 1029.38 337.816C1028.76 339.441 1027.74 340.204 1026.32 340.104C1024.89 340.004 1023.85 339.153 1023.18 337.551C1021.48 333.128 1019.78 330.11 1018.09 328.498C1016.38 326.747 1014.79 324.277 1013.34 321.089C1011.88 317.9 1010.76 314.948 1009.99 312.234C1009.34 309.365 1008.75 306.488 1008.22 303.603C1006.58 295.797 1005.31 290.475 1004.4 287.638C1002.22 280.886 1000.22 276.781 998.412 275.324C997.278 274.203 996.233 273.352 995.278 272.771C994.31 272.05 993.475 271.383 992.774 270.77C991.232 269.419 990.343 267.494 990.108 264.993C989.986 262.337 989.913 258.831 989.888 254.475C989.85 249.981 988.999 245.731 987.336 241.724C985.799 237.702 984.735 234.603 984.144 232.429C983.668 230.099 983.064 227.786 982.333 225.489C980.832 220.478 978.568 215.564 975.541 210.747C970.115 202.298 968.742 195.232 971.421 189.548C972.912 186.265 975.755 184.356 979.949 183.822L984.333 183.264C985.731 183.086 987.007 182.291 988.16 180.879C989.782 178.985 992.464 178.784 996.206 180.276C996.727 180.35 997.306 180.347 997.941 180.266C998.691 180.03 999.46 180.002 1000.25 180.183C1004.19 181.087 1006.64 186.54 1007.58 196.544Z" fill="white"/>
</mask>
<g mask="url(#mask0)">
<path d="M-35.2191 3.61987H1132.19V570.13H-35.2191V3.61987Z" fill="url(#paint0_linear)"/>
</g>
<defs>
<linearGradient id="paint0_linear" x1="-62.5" y1="305.5" x2="623.469" y2="-327.938" gradientUnits="userSpaceOnUse">
<stop stop-color="#90F3B3"/>
<stop offset="0.0001" stop-color="#90F3B3"/>
<stop offset="0.130553" stop-color="#90E9F3"/>
<stop offset="0.276042" stop-color="#909FF3"/>
<stop offset="0.421875" stop-color="#CC90F3"/>
<stop offset="0.5625" stop-color="#F390D1"/>
<stop offset="0.707239" stop-color="#F39A90"/>
<stop offset="0.844898" stop-color="#F3E590"/>
<stop offset="0.991596" stop-color="#B8F390"/>
</linearGradient>
</defs>
</svg>
